<svg xmlns="http://www.w3.org/2000/svg" viewBox="-4.1 26.1 285.6 94.8" fill="currentColor">
  <defs>
    <mask id="m" maskUnits="userSpaceOnUse" x="-4.1" y="26.1" width="285.6" height="94.8">
      <rect x="-4.1" y="26.1" width="285.6" height="94.8" fill="#000"/>
      <g fill="#fff" stroke="none"><path d="M71.4 68.9Q71.4 70.8 71.0 72.4Q70.0 76.5 67.2 78.7Q64.4 80.9 60.5 80.9Q56.7 80.9 54.75 79.1Q52.800000000000004 77.3 51.300000000000004 74.3Q50.5 72.6 49.8 71.8Q49.1 71.0 48.2 71.0Q47.2 71.0 46.45 71.8Q45.7 72.6 45.1 74.6L37.400000000000006 99.6Q37.2 100.1 37.2 101.1Q37.2 102.4 37.95 103.25Q38.7 104.1 40.0 104.9Q41.2 105.7 41.6 106.2Q42.0 106.7 41.900000000000006 107.5Q41.7 108.8 40.45 109.4Q39.2 110.0 36.2 110.0H10.6Q8.0 110.0 6.85 109.15Q5.7 108.3 6.0 106.9Q6.4 105.7 8.1 104.8Q9.6 104.0 10.6 102.9Q11.6 101.8 12.3 99.4L21.200000000000003 70.5Q21.4 70.0 21.4 69.1Q21.4 68.0 20.95 67.4Q20.5 66.8 19.5 65.9Q18.5 65.1 18.1 64.5Q17.7 63.9 18.0 62.9Q18.6 60.599999999999994 24.3 58.849999999999994Q30.0 57.099999999999994 36.2 57.099999999999994Q40.3 57.099999999999994 43.0 58.949999999999996Q45.7 60.8 46.5 64.19999999999999Q51.300000000000004 57.099999999999994 59.1 57.099999999999994Q64.7 57.099999999999994 68.05000000000001 60.5Q71.4 63.9 71.4 68.9Z M128.9 74.3Q128.9 77.6 127.70000000000002 81.8L123.60000000000001 95.6Q123.5 96.0 123.5 96.6Q123.5 98.2 124.80000000000001 98.2Q126.0 98.2 126.85000000000001 97.15Q127.70000000000002 96.1 128.0 96.1Q128.5 96.1 128.85000000000002 96.8Q129.20000000000002 97.5 129.20000000000002 98.4Q129.3 101.1 127.15 103.9Q125.0 106.7 121.4 108.5Q117.80000000000001 110.3 113.5 110.3Q108.30000000000001 110.3 104.60000000000001 108.4Q100.9 106.5 99.5 102.8Q96.5 106.4 92.4 108.35Q88.30000000000001 110.3 83.60000000000001 110.3Q78.30000000000001 110.3 74.70000000000002 108.25Q71.10000000000001 106.2 69.35000000000001 102.95Q67.60000000000001 99.7 67.60000000000001 96.1Q67.60000000000001 94.5 67.9 93.0Q69.5 86.1 74.85 82.6Q80.2 79.1 87.60000000000001 79.1Q95.9 79.1 103.9 81.7L106.4 75.1Q107.70000000000002 70.9 107.70000000000002 68.6Q107.60000000000001 66.19999999999999 106.10000000000001 65.0Q104.60000000000001 63.8 101.5 63.8Q102.10000000000001 65.4 102.10000000000001 67.1Q102.10000000000001 70.8 99.30000000000001 73.5Q96.5 76.19999999999999 91.30000000000001 76.19999999999999Q86.4 76.19999999999999 83.65 74.05Q80.9 71.9 80.9 68.69999999999999Q80.9 63.699999999999996 86.5 60.39999999999999Q92.10000000000001 57.099999999999994 103.60000000000001 57.099999999999994Q115.10000000000001 57.099999999999994 122.0 61.349999999999994Q128.9 65.6 128.9 74.3Z M91.7 94.2Q91.7 95.8 92.45 96.8Q93.2 97.8 94.60000000000001 97.8Q95.9 97.8 97.45 96.75Q99.0 95.7 99.7 93.6L101.80000000000001 87.7Q100.10000000000001 87.4 98.0 87.4Q95.2 87.4 93.45 89.55000000000001Q91.7 91.7 91.7 94.2Z M205.20000000000002 67.9Q205.20000000000002 72.69999999999999 202.3 75.39999999999999Q199.40000000000003 78.1 194.70000000000002 78.1Q190.5 78.1 188.2 75.94999999999999Q185.9 73.8 186.0 71.1Q185.0 70.9 184.3 71.9Q183.60000000000002 72.9 182.8 75.8Q182.3 77.69999999999999 180.9 79.3Q187.70000000000002 79.8 191.0 82.4Q194.3 85.0 194.3 89.1Q194.3 91.1 193.60000000000002 93.1L192.8 96.2Q192.60000000000002 96.7 192.60000000000002 97.5Q192.60000000000002 98.9 193.9 98.9Q195.10000000000002 98.9 195.95000000000002 97.85Q196.8 96.8 197.10000000000002 96.8Q197.60000000000002 96.8 197.90000000000003 97.44999999999999Q198.20000000000002 98.1 198.20000000000002 99.0Q198.3 101.9 196.45000000000002 104.65Q194.60000000000002 107.4 190.85000000000002 109.15Q187.10000000000002 110.9 181.8 110.9Q175.4 110.9 171.15 107.7Q166.9 104.5 166.9 99.3Q166.9 97.4 167.70000000000002 95.0L169.60000000000002 90.0Q170.10000000000002 88.2 170.10000000000002 87.4Q170.10000000000002 86.1 169.25 85.5Q168.4 84.9 166.60000000000002 84.9H164.60000000000002L160.10000000000002 99.6Q159.8 100.8 159.8 101.7Q159.8 103.0 160.3 103.75Q160.8 104.5 161.70000000000002 105.2Q162.4 105.9 162.7 106.35Q163.0 106.8 162.8 107.5Q162.3 108.8 160.8 109.4Q159.3 110.0 156.20000000000002 110.0H133.4Q130.8 110.0 129.60000000000002 109.15Q128.4 108.3 128.8 106.9Q129.20000000000002 105.7 130.9 104.8Q132.4 104.0 133.4 102.9Q134.4 101.8 135.10000000000002 99.4L150.3 49.5Q150.60000000000002 48.599999999999994 150.60000000000002 48.0Q150.60000000000002 46.9 150.05 46.2Q149.5 45.5 148.60000000000002 44.8Q147.60000000000002 44.0 147.15000000000003 43.4Q146.70000000000002 42.8 147.0 41.8Q147.60000000000002 39.5 153.3 37.8Q159.0 36.099999999999994 165.20000000000002 36.099999999999994Q171.0 36.099999999999994 173.7 38.24999999999999Q176.4 40.39999999999999 176.4 44.2Q176.4 46.5 175.70000000000002 48.599999999999994L167.0 77.0H170.3Q172.3 77.0 173.55 75.8Q174.8 74.6 175.5 72.3Q178.0 64.9 182.0 61.0Q186.0 57.099999999999994 192.60000000000002 57.099999999999994Q198.3 57.099999999999994 201.75 60.25Q205.20000000000002 63.4 205.20000000000002 67.9Z M262.6 96.2Q262.40000000000003 97.0 262.40000000000003 97.4Q262.40000000000003 98.1 262.75 98.5Q263.1 98.9 263.70000000000005 98.9Q264.90000000000003 98.9 265.75 97.85Q266.6 96.8 266.90000000000003 96.8Q267.40000000000003 96.8 267.75 97.44999999999999Q268.1 98.1 268.1 99.0Q268.20000000000005 101.8 266.1 104.55Q264.0 107.3 260.20000000000005 109.1Q256.40000000000003 110.9 251.70000000000002 110.9Q245.8 110.9 242.3 108.5Q238.8 106.1 237.8 102.2Q234.20000000000002 106.2 229.85000000000002 108.25Q225.50000000000003 110.3 221.00000000000003 110.3Q214.00000000000003 110.3 209.25000000000003 106.85Q204.50000000000003 103.4 204.50000000000003 97.2Q204.50000000000003 94.4 205.50000000000003 91.4L211.9 70.5Q212.20000000000002 69.6 212.20000000000002 69.0Q212.20000000000002 67.9 211.70000000000002 67.25Q211.20000000000002 66.6 210.20000000000002 65.9Q209.20000000000002 65.1 208.8 64.5Q208.4 63.9 208.70000000000002 62.9Q209.3 60.599999999999994 215.0 58.849999999999994Q220.70000000000002 57.099999999999994 226.90000000000003 57.099999999999994Q232.70000000000002 57.099999999999994 235.40000000000003 59.3Q238.10000000000002 61.5 238.10000000000002 65.3Q238.10000000000002 67.6 237.40000000000003 69.69999999999999L231.10000000000002 90.5Q230.70000000000002 91.6 230.70000000000002 92.6Q230.70000000000002 94.0 231.5 94.7Q232.3 95.4 233.60000000000002 95.4Q235.50000000000003 95.4 236.70000000000005 94.30000000000001Q237.90000000000003 93.2 239.10000000000002 90.6L245.20000000000002 70.5Q245.50000000000003 69.6 245.50000000000003 69.0Q245.50000000000003 67.9 245.00000000000003 67.25Q244.50000000000003 66.6 243.60000000000002 65.9Q242.60000000000002 65.1 242.20000000000002 64.5Q241.8 63.9 242.10000000000002 62.9Q242.60000000000002 60.599999999999994 248.3 58.849999999999994Q254.00000000000003 57.099999999999994 260.20000000000005 57.099999999999994Q266.0 57.099999999999994 268.75 59.3Q271.5 61.5 271.5 65.19999999999999Q271.5 67.1 270.70000000000005 69.69999999999999Z" fill="#fff" /></g>
      <g fill="none" stroke="#000" stroke-width="3" stroke-linecap="round"><path d="M156.5 44.5Q163.5 45.5 170.5 50"/><path d="M153.5 56.5Q160.5 57.5 167.5 62"/><path d="M150.5 68.5Q157.5 69.5 164.5 74"/></g>
      
    </mask>
  </defs>
  <rect x="-4.1" y="26.1" width="285.6" height="94.8" mask="url(#m)"/>
</svg>
