<svg xmlns="http://www.w3.org/2000/svg" viewBox="-9 -9 118 118">
  <defs>
    <filter id="rough" filterUnits="userSpaceOnUse" x="-9.0" y="-9.0" width="118.0" height="118.0">
      <feTurbulence type="fractalNoise" baseFrequency="0.045" numOctaves="2" seed="5"/>
      <feDisplacementMap in="SourceGraphic" scale="1.8" xChannelSelector="R" yChannelSelector="G"/>
    </filter>
  </defs>
  <g filter="url(#rough)" stroke-linecap="round" stroke-linejoin="round">
    <path d="M20 56C20 36 34 24 52 24C70 24 84 36 84 56C84 68 72 72 52 72C32 72 20 68 20 56Z" fill="#1D3557" stroke="#1D3557" stroke-width="13.00"/>
    <path d="M30 81a7 7 0 1 0 14 0a7 7 0 1 0-14 0z" fill="#1D3557" stroke="#1D3557" stroke-width="13.00"/>
    <path d="M60 81a7 7 0 1 0 14 0a7 7 0 1 0-14 0z" fill="#1D3557" stroke="#1D3557" stroke-width="13.00"/>
    <path d="M4 46h9" fill="none" stroke="#1D3557" stroke-width="17.50"/>
    <path d="M1 57h11" fill="none" stroke="#1D3557" stroke-width="17.50"/>
    <path d="M20 56C20 36 34 24 52 24C70 24 84 36 84 56C84 68 72 72 52 72C32 72 20 68 20 56Z" fill="#FEF0D5" stroke="#FEF0D5" stroke-width="8.50"/>
    <path d="M30 81a7 7 0 1 0 14 0a7 7 0 1 0-14 0z" fill="#FEF0D5" stroke="#FEF0D5" stroke-width="8.50"/>
    <path d="M60 81a7 7 0 1 0 14 0a7 7 0 1 0-14 0z" fill="#FEF0D5" stroke="#FEF0D5" stroke-width="8.50"/>
    <path d="M4 46h9" fill="none" stroke="#FEF0D5" stroke-width="13.00"/>
    <path d="M1 57h11" fill="none" stroke="#FEF0D5" stroke-width="13.00"/>
    <path d="M20 56C20 36 34 24 52 24C70 24 84 36 84 56C84 68 72 72 52 72C32 72 20 68 20 56Z" fill="#1D3557"/>
    <path d="M30 81a7 7 0 1 0 14 0a7 7 0 1 0-14 0z" fill="#1D3557"/>
    <path d="M60 81a7 7 0 1 0 14 0a7 7 0 1 0-14 0z" fill="#1D3557"/>
    <path d="M4 46h9" fill="none" stroke="#1D3557" stroke-width="4.50"/>
    <path d="M1 57h11" fill="none" stroke="#1D3557" stroke-width="4.50"/>
    <path d="M30 41C40 30 62 28 76 38C62 33 42 34 30 41Z" fill="#FEF0D5" stroke="#FEF0D5" stroke-width="2"/><ellipse cx="45" cy="54" rx="5.6" ry="8" fill="#FEF0D5"/><ellipse cx="46.8" cy="55.6" rx="2.9" ry="3.7" fill="#1D3557"/><ellipse cx="60" cy="54" rx="5.6" ry="8" fill="#FEF0D5"/><ellipse cx="61.8" cy="55.6" rx="2.9" ry="3.7" fill="#1D3557"/><circle cx="37" cy="81" r="2.4" fill="#FEF0D5"/><circle cx="67" cy="81" r="2.4" fill="#FEF0D5"/>
  </g>
</svg>
